<svg xmlns="http://www.w3.org/2000/svg" width="132.662" height="96.92" viewBox="0 0 132.662 96.92">
  <g id="Group_3132" data-name="Group 3132" transform="translate(0)">
    <g id="Path_3318" data-name="Path 3318" transform="translate(-1308.142 -141.285)" fill="none" stroke-miterlimit="10" opacity="0.67">
      <path d="M1382.978,141.285h-74.835v40.393h8.5v12.739l12.739-12.739h53.592Z" stroke="none"/>
      <path d="M 1312.142456054688 145.2847290039062 L 1312.142456054688 177.6773986816406 L 1316.646606445312 177.6773986816406 L 1320.646606445312 177.6773986816406 L 1320.646606445312 181.6773986816406 L 1320.646606445312 184.7594604492188 L 1326.55712890625 178.8489837646484 L 1327.728637695312 177.6773986816406 L 1329.385498046875 177.6773986816406 L 1378.9775390625 177.6773986816406 L 1378.9775390625 145.2847290039062 L 1312.142456054688 145.2847290039062 M 1308.142456054688 141.2847290039062 L 1382.9775390625 141.2847290039062 L 1382.9775390625 181.6773986816406 L 1329.385498046875 181.6773986816406 L 1316.646606445312 194.4163055419922 L 1316.646606445312 181.6773986816406 L 1308.142456054688 181.6773986816406 L 1308.142456054688 141.2847290039062 Z" stroke="none" fill="#fff"/>
    </g>
    <g id="Path_3319" data-name="Path 3319" transform="translate(-1308.142 -141.285)" fill="none" stroke-miterlimit="10">
      <path d="M1440.8,188.78h-69.154v38.4h50.777l11.021,11.02v-11.02h7.357Z" stroke="none"/>
      <path d="M 1375.650512695312 192.7798004150391 L 1375.650512695312 223.1841278076172 L 1422.427124023438 223.1841278076172 L 1424.083984375 223.1841278076172 L 1425.255493164062 224.3556518554688 L 1429.447875976562 228.5478820800781 L 1429.447875976562 227.1841278076172 L 1429.447875976562 223.1841278076172 L 1433.447875976562 223.1841278076172 L 1436.804565429688 223.1841278076172 L 1436.804565429688 192.7798004150391 L 1375.650512695312 192.7798004150391 M 1371.650512695312 188.7798004150391 L 1440.804565429688 188.7798004150391 L 1440.804565429688 227.1841278076172 L 1433.447875976562 227.1841278076172 L 1433.447875976562 238.2045135498047 L 1422.427124023438 227.1841278076172 L 1371.650512695312 227.1841278076172 L 1371.650512695312 188.7798004150391 Z" stroke="none" fill="#0a0a0a"/>
    </g>
    <rect id="Rectangle_436" data-name="Rectangle 436" width="7.993" height="7.993" transform="translate(15.307 15.596)" fill="#fff" opacity="0.67"/>
    <rect id="Rectangle_437" data-name="Rectangle 437" width="7.993" height="7.993" transform="translate(29.424 15.596)" fill="#fff" opacity="0.67"/>
    <rect id="Rectangle_438" data-name="Rectangle 438" width="7.993" height="7.993" transform="translate(43.087 15.596)" fill="#fff" opacity="0.67"/>
    <rect id="Rectangle_439" data-name="Rectangle 439" width="7.993" height="7.993" transform="translate(80.199 61.161)" fill="#0082f2"/>
    <rect id="Rectangle_440" data-name="Rectangle 440" width="7.993" height="7.993" transform="translate(94.316 61.161)" fill="#0082f2"/>
    <rect id="Rectangle_441" data-name="Rectangle 441" width="7.993" height="7.993" transform="translate(107.978 61.161)" fill="#0082f2"/>
  </g>
</svg>
