<svg xmlns="http://www.w3.org/2000/svg" width="77.602" height="107.656" viewBox="0 0 77.602 107.656">
  <g id="Group_3237" data-name="Group 3237" transform="translate(-1147.829 -137.285)">
    <path id="Path_3315" data-name="Path 3315" d="M1203.008,137.285h-55.179V244.941h77.6V159.707Zm12.91,20.376H1205.57V147.09Zm5.513,83.28h-69.6V141.285h49.522l.219.219v20.157h19.861Z" fill="#fff" opacity="0.61"/>
    <g id="Group_3130" data-name="Group 3130">
      <path id="Path_3316" data-name="Path 3316" d="M1206.8,202.545l-4.406-2.45,3.227-3.421,1.272-1.349-.813-1.666a21.8,21.8,0,0,0-1.673-2.849l-1-1.434-1.715.33-4.531.874.257-4.422.1-1.8-1.631-.775a21.618,21.618,0,0,0-3.251-1.229l-1.706-.493-1.12,1.378-2.775,3.418-2.653-3.562-1.053-1.415-1.716.407a21.639,21.639,0,0,0-3.274,1.056l-1.684.7.03,1.822.072,4.492-4.614-1.093-1.7-.4-1.056,1.388a21.706,21.706,0,0,0-1.75,2.692l-.9,1.636,1.222,1.41,3.168,3.655-4.645,2.333-1.568.788.095,1.752a21.475,21.475,0,0,0,.351,2.874l.351,1.851,1.86.3,4.828.772c.073.148.148.294.225.44l-2.048,4.75-.711,1.648,1.252,1.285a21.673,21.673,0,0,0,1.951,1.773l1.456,1.17,1.6-.959,4.235-2.536q.395.17.8.318l1.439,4.8.529,1.765,1.838.139c.607.046,1.146.068,1.649.068.3,0,.607-.009.908-.022l1.825-.076.6-1.726,1.665-4.813q.354-.119.7-.255l4.128,2.715,1.568,1.03,1.505-1.119a21.921,21.921,0,0,0,2.064-1.751l1.284-1.231-.635-1.662-1.887-4.938c.037-.065.074-.131.11-.2l4.922-.576,1.868-.218.431-1.831a21.74,21.74,0,0,0,.484-2.965l.159-1.74Zm-1.728,4.94-6.38.747a13.118,13.118,0,0,1-1.321,2.4l2.364,6.185a18.931,18.931,0,0,1-1.809,1.535l-5.355-3.521a12.963,12.963,0,0,1-3.027,1.1l-2.122,6.133c-.265.011-.53.02-.8.02-.487,0-.969-.024-1.447-.06l-1.847-6.167a13.009,13.009,0,0,1-3.089-1.233l-5.481,3.283a18.935,18.935,0,0,1-1.71-1.554l2.588-6a13.091,13.091,0,0,1-1.349-2.666l-6.283-1a18.989,18.989,0,0,1-.308-2.519l5.935-2.981a13.033,13.033,0,0,1,.57-2.307L1170,194.027a19.033,19.033,0,0,1,1.535-2.359l6.526,1.546a13.15,13.15,0,0,1,1.419-1.063l-.1-6.534a18.9,18.9,0,0,1,2.866-.924l3.994,5.364c.121,0,.242-.01.364-.01.371,0,.738.02,1.1.05l4.2-5.17a18.815,18.815,0,0,1,2.846,1.075l-.383,6.593a13.112,13.112,0,0,1,1.222,1.021l6.62-1.277a18.9,18.9,0,0,1,1.466,2.5l-4.463,4.731a13.092,13.092,0,0,1,.41,2.052l5.88,3.27A18.945,18.945,0,0,1,1205.075,207.485Z" fill="#0082f2"/>
      <path id="Path_3317" data-name="Path 3317" d="M1186.6,193.289a10.1,10.1,0,1,0,10.1,10.1A10.114,10.114,0,0,0,1186.6,193.289Zm0,17.522a7.421,7.421,0,1,1,7.42-7.42A7.42,7.42,0,0,1,1186.6,210.811Z" fill="#0082f2"/>
    </g>
  </g>
</svg>
