<svg xmlns="http://www.w3.org/2000/svg" width="138.93" height="97.563" viewBox="0 0 138.93 97.563">
  <g id="Group_3125" data-name="Group 3125" transform="translate(-329.031 -151.155)">
    <rect id="Rectangle_433" data-name="Rectangle 433" width="13.045" height="12.98" transform="translate(433.37 164.743) rotate(-45)" fill="#0082f2"/>
    <path id="Path_3302" data-name="Path 3302" d="M467.961,248.718H329.031V203h38.851v4H333.031v37.718h130.93V207H426.843v-4h41.118Z" opacity="0.2"/>
    <path id="Path_3303" data-name="Path 3303" d="M455.117,162.385l-10.21-10.211a3.408,3.408,0,0,0-2.4-1.019,2.842,2.842,0,0,0-2.03.82l-59.656,59.656-5.87,20.705,20.705-5.87.753-.753h0L440.4,181.724l14.914-14.914A3.138,3.138,0,0,0,455.117,162.385Zm-58.7,57.671-3.26-3.26,43.307-43.307,3.26,3.26Zm34.129-52.485,3.09,3.09-43.307,43.307-3.09-3.09Zm2.828-2.828,4.2-4.2,9.179,9.178-4.2,4.2Zm-39.8,58.159-12.809,3.631,3.631-12.809.018-.017,9.177,9.177Zm55.761-55.761-9.178-9.178,2.444-2.444,9.178,9.178Z"/>
  </g>
</svg>
