<svg xmlns="http://www.w3.org/2000/svg" width="141.165" height="107.433" viewBox="0 0 141.165 107.433">
  <g id="Group_3129" data-name="Group 3129" transform="translate(-935.226 -137.285)">
    <path id="Path_3311" data-name="Path 3311" d="M1072.391,141.285v99.433H939.226V141.285h133.165m4-4H935.226V244.718h141.165V137.285Z" opacity="0.2"/>
    <path id="Path_3312" data-name="Path 3312" d="M1025.564,149.715V157.7H948.092v-7.986h77.472m4-4H944.092V161.7h85.472V145.715Z" opacity="0.2"/>
    <path id="Path_3313" data-name="Path 3313" d="M1044.6,149.715V157.7h-8.157v-7.986h8.157m4-4h-16.157V161.7H1048.6V145.715Z" opacity="0.2"/>
    <path id="Path_3314" data-name="Path 3314" d="M1064.155,149.715V157.7H1056v-7.986h8.157m4-4H1052V161.7h16.157V145.715Z" opacity="0.2"/>
    <rect id="Rectangle_434" data-name="Rectangle 434" width="57.26" height="37.719" transform="translate(977.179 178.557)" fill="#0082f2"/>
    <rect id="Rectangle_435" data-name="Rectangle 435" width="36.283" height="6.438" transform="translate(988.328 203.223)" fill="#fff"/>
  </g>
</svg>
